<?xml version="1.0" encoding="UTF-8"?>
<svg width="700pt" height="700pt" version="1.1" viewBox="0 0 700 700" xmlns="http://www.w3.org/2000/svg">
 <g>
  <path d="m229.41 446.25h241.17c2.957 0 5.4609-2.5039 5.4609-5.4609v-321.58c0-2.957-2.5039-5.4609-5.4609-5.4609h-241.17c-2.957 0-5.4609 2.5039-5.4609 5.4609v321.56c0.003907 2.9727 2.5039 5.4766 5.4609 5.4766zm206.64-42.176h-172.09v-17.5h172.09zm0-52.168h-172.09v-17.5h172.09zm-16.641-158.11h11.621v47.391h28.891v9.6953h-40.512zm-67.445-0.45703h17.379l10.449 39.254 10.324-39.254h17.43v57.539h-10.781v-45.309l-11.426 45.309h-11.188l-11.391-45.309v45.309h-10.797zm-53.062 0h45.727v9.7305h-17.047v47.809h-11.621v-47.809h-17.059zm-53.898 0h11.621v22.645h22.766v-22.645h11.621v57.539h-11.621v-25.164h-22.766v25.164h-11.621z"/>
  <path d="m350 560c154.65 0 280-125.35 280-280s-125.35-280-280-280-280 125.35-280 280 125.35 280 280 280zm-143.55-440.79c0-12.637 10.344-22.961 22.961-22.961h241.17c12.637 0 22.961 10.344 22.961 22.961v321.56c0 12.637-10.344 22.961-22.961 22.961h-241.17c-12.637 0-22.961-10.344-22.961-22.961z"/>
 </g>
</svg>
